<?xml version="1.0" encoding="UTF-8"?>
<svg width="199px" height="160px" viewBox="0 0 199 160" version="1.1" xmlns="http://www.w3.org/2000/svg" xmlns:xlink="http://www.w3.org/1999/xlink">
    <!-- Generator: Sketch 43.1 (39012) - http://www.bohemiancoding.com/sketch -->
    <title>Combined Shape</title>
    <desc>Created with Sketch.</desc>
    <defs></defs>
    <g id="Page-1" stroke="none" stroke-width="1" fill="none" fill-rule="evenodd">
        <path d="M189.196412,32.8 L9.62015652,32.8 L9.62015652,152 L189.196412,152 L189.196412,32.8 Z M0,0 L198.816568,0 L198.816568,160 L0,160 L0,0 Z M183.413438,21.8 C186.955482,21.8 189.826875,18.9346224 189.826875,15.4 C189.826875,11.8653776 186.955482,9 183.413438,9 C179.871394,9 177,11.8653776 177,15.4 C177,18.9346224 179.871394,21.8 183.413438,21.8 Z M168.413438,21.8 C171.955482,21.8 174.826875,18.9346224 174.826875,15.4 C174.826875,11.8653776 171.955482,9 168.413438,9 C164.871394,9 162,11.8653776 162,15.4 C162,18.9346224 164.871394,21.8 168.413438,21.8 Z M153.413438,21.8 C156.955482,21.8 159.826875,18.9346224 159.826875,15.4 C159.826875,11.8653776 156.955482,9 153.413438,9 C149.871394,9 147,11.8653776 147,15.4 C147,18.9346224 149.871394,21.8 153.413438,21.8 Z M76.8777674,120.165705 C70.1208296,118.2707 66.6754172,113.954364 66.541427,107.216567 L66.541427,101.100899 C66.541427,96.7940693 64.6943031,94.6406866 61,94.6406866 L61,89.5299405 C64.6943031,89.5299405 66.541427,87.3669871 66.541427,83.0410156 L66.541427,76.9540596 C66.5988514,73.5085956 67.4937015,70.7235539 69.2260043,68.5988511 C70.958307,66.4741482 73.5088692,64.9332833 76.8777674,63.9762099 L78.2559461,67.9958979 C74.9444723,69.06782 73.2313368,71.9964205 73.116488,76.7817872 L73.116488,82.9835915 C73.116488,87.2904216 71.4607759,90.314728 68.1493021,92.0566015 C71.4607759,93.8176164 73.116488,96.8706346 73.116488,101.215748 L73.116488,107.331416 C73.2313368,112.116782 74.9444723,115.045383 78.2559461,116.117305 L76.8777674,120.165705 Z M82.7924511,92.831827 C82.7924511,88.4101481 83.3858277,84.2134445 84.5725986,80.2415901 C85.7593696,76.2697357 87.5012169,72.7190469 89.7981929,69.589417 C92.095169,66.4597872 94.5260988,64.2633368 97.0910554,63 L98.4692341,67.0771121 C95.7702873,69.125249 93.5834075,72.2500466 91.9085291,76.4515986 C90.2336508,80.6531506 89.3196594,85.462372 89.1665277,90.8794071 L89.1378156,93.348644 C89.1378156,99.1485085 89.9561011,104.321412 91.5926965,108.867511 C93.2292919,113.413609 95.5214482,116.873377 98.4692341,119.246919 L97.0910554,123.123047 C94.5260988,121.85971 92.0903837,119.653689 89.7838369,116.504918 C87.4772902,113.356146 85.7354428,109.805458 84.5582426,105.852745 C83.3810424,101.900032 82.7924511,97.5597693 82.7924511,92.831827 Z M116.643966,93.2912199 C116.643966,97.5406255 116.06016,101.641623 114.892531,105.594336 C113.724901,109.547049 111.954342,113.145591 109.5808,116.39007 C107.207258,119.634548 104.728475,121.878852 102.144377,123.123047 L100.766199,119.246919 C103.637419,117.026509 105.910434,113.633735 107.585312,109.068495 C109.26019,104.503255 110.097617,99.292069 110.097617,93.4347802 L110.097617,92.7744029 C110.097617,87.4530751 109.370252,82.6055713 107.915501,78.2317461 C106.460749,73.8579209 104.374361,70.3502997 101.656272,67.7087773 L100.766199,66.9048397 L102.144377,63 C104.594485,64.1867709 106.967991,66.2923007 109.264967,69.3166525 C111.561943,72.3410043 113.322932,75.7242078 114.547986,79.4663646 C115.77304,83.2085213 116.462122,87.0702544 116.615254,91.0516795 L116.643966,93.2912199 Z M121.123047,116.117305 C124.491945,115.026241 126.214651,112.040217 126.291217,107.159143 L126.291217,101.187036 C126.291217,96.7653567 128.033064,93.7314797 131.516811,92.0853135 C128.033064,90.4391474 126.291217,87.3765586 126.291217,82.8974553 L126.291217,76.9540596 C126.214651,72.0729855 124.491945,69.0869615 121.123047,67.9958979 L122.501226,63.9762099 C125.984973,64.9524247 128.578602,66.5363574 130.282193,68.7280553 C131.985784,70.9197533 132.837566,73.786145 132.837566,77.3273163 L132.837566,83.0697277 C132.837566,87.3765577 134.69426,89.5299405 138.407705,89.5299405 L138.407705,94.6406866 C134.69426,94.6406866 132.837566,96.7940693 132.837566,101.100899 L132.837566,106.757175 C132.837566,110.336629 131.980998,113.222162 130.267837,115.41386 C128.554676,117.605558 125.965831,119.18949 122.501226,120.165705 L121.123047,116.117305 Z" id="Combined-Shape" fill="#FAFBFB"></path>
    </g>
</svg>