<?xml version="1.0" encoding="UTF-8"?>
<svg width="199px" height="160px" viewBox="0 0 199 160" version="1.1" xmlns="http://www.w3.org/2000/svg" xmlns:xlink="http://www.w3.org/1999/xlink">
    <!-- Generator: Sketch 43.1 (39012) - http://www.bohemiancoding.com/sketch -->
    <title>Group 3</title>
    <desc>Created with Sketch.</desc>
    <defs></defs>
    <g id="Page-1" stroke="none" stroke-width="1" fill="none" fill-rule="evenodd">
        <g id="Group-3" fill="#21E387">
            <path d="M189.196412,32.8 L9.62015652,32.8 L9.62015652,152 L189.196412,152 L189.196412,32.8 Z M0,0 L198.816568,0 L198.816568,160 L0,160 L0,0 Z M45.4134377,21.8 C48.9554815,21.8 51.8268754,18.9346224 51.8268754,15.4 C51.8268754,11.8653776 48.9554815,9 45.4134377,9 C41.8713939,9 39,11.8653776 39,15.4 C39,18.9346224 41.8713939,21.8 45.4134377,21.8 Z M30.4134377,21.8 C33.9554815,21.8 36.8268754,18.9346224 36.8268754,15.4 C36.8268754,11.8653776 33.9554815,9 30.4134377,9 C26.8713939,9 24,11.8653776 24,15.4 C24,18.9346224 26.8713939,21.8 30.4134377,21.8 Z M15.4134377,21.8 C18.9554815,21.8 21.8268754,18.9346224 21.8268754,15.4 C21.8268754,11.8653776 18.9554815,9 15.4134377,9 C11.8713939,9 9,11.8653776 9,15.4 C9,18.9346224 11.8713939,21.8 15.4134377,21.8 Z M12,80 L31,80 L31,114 L12,114 L12,80 Z M12,39 L31,39 L31,77 L12,77 L12,39 Z" id="Combined-Shape"></path>
            <g id="Group-2" transform="translate(50.000000, 45.000000)">
                <path d="M0,0 L99,0 L99,93 L0,93 L0,0 Z M29.3,52.18 L9,78.5 L90.48,78.5 L64.3,43.5 L44,69.68 L29.3,52.18 Z M41.74,32 C46.4344204,32 50.24,28.1944204 50.24,23.5 C50.24,18.8055796 46.4344204,15 41.74,15 C37.0455796,15 33.24,18.8055796 33.24,23.5 C33.24,28.1944204 37.0455796,32 41.74,32 Z" id="Combined-Shape"></path>
            </g>
        </g>
    </g>
</svg>