<?xml version="1.0" encoding="UTF-8"?>
<svg width="523px" height="655px" viewBox="0 0 523 655" version="1.1" xmlns="http://www.w3.org/2000/svg" xmlns:xlink="http://www.w3.org/1999/xlink">
    <!-- Generator: Sketch 43.1 (39012) - http://www.bohemiancoding.com/sketch -->
    <title>BigBen</title>
    <desc>Created with Sketch.</desc>
    <defs>
        <rect id="path-1" x="0" y="62" width="71" height="210"></rect>
        <rect id="path-2" x="0" y="62" width="71" height="210"></rect>
        <path d="M58,473 L0,473 L0,568 L102.5,568 L153,568 L153,158 L58,158 L58,473 Z" id="path-3"></path>
        <rect id="path-4" x="52" y="199" width="107" height="97"></rect>
        <polygon id="path-5" points="80 71 131 71 131 102 80 102 80 73"></polygon>
        <rect id="path-6" x="152" y="473" width="61" height="95"></rect>
        <rect id="path-7" x="0" y="39" width="103" height="124"></rect>
    </defs>
    <g id="Page-1" stroke="none" stroke-width="1" fill="none" fill-rule="evenodd">
        <g id="Citys" transform="translate(-2745.000000, -297.000000)">
            <g id="BigBen" transform="translate(2745.000000, 297.000000)">
                <text id="ENGLISH" font-family="Roboto-Thin, Roboto" font-size="80" font-style="condensed" font-weight="300" fill="#000000">
                    <tspan x="100" y="654">ENGLISH</tspan>
                </text>
                <g id="torre1" transform="translate(18.000000, 296.000000)">
                    <g id="Rectangle-12">
                        <use fill="#FFFFFF" fill-rule="evenodd" xlink:href="#path-1"></use>
                        <rect stroke="#212121" stroke-width="4" x="2" y="64" width="67" height="206"></rect>
                    </g>
                    <path d="M48.1111111,38 L22.8888889,38 L18,27 L2,63 L21,63 L21,64 L51,64 L51,63 L69,63 L53,27 L48.1111111,38 Z" id="Combined-Shape" fill="#212121"></path>
                    <path d="M0,17.5 C0,17.5 3.82103663,0 4,0 C4.17896337,0 8,17.5 8,17.5 L8,62.4924893 C8,64.429634 6.43852818,66 4.4910835,66 L3.5089165,66 C1.57099543,66 0,64.4412489 0,62.4924893 L0,17.5 Z" id="Rectangle-3" fill="#212121"></path>
                    <path d="M63,17.5 C63,17.5 66.8210366,0 67,0 C67.1789634,0 71,17.5 71,17.5 L71,62.4924893 C71,64.429634 69.4385282,66 67.4910835,66 L66.5089165,66 C64.5709954,66 63,64.4412489 63,62.4924893 L63,17.5 Z" id="Rectangle-3" fill="#212121"></path>
                    <path d="M20,92.9992748 C20,90.7905363 21.7953562,89 24,89 C26.209139,89 28,90.7867947 28,92.9992748 L28,119 L20,119 L20,92.9992748 Z M28,92.9992748 C28,90.7905363 29.7953562,89 32,89 C34.209139,89 36,90.7867947 36,92.9992748 L36,119 L28,119 L28,92.9992748 Z M36,92.9992748 C36,90.7905363 37.7953562,89 40,89 C42.209139,89 44,90.7867947 44,92.9992748 L44,119 L36,119 L36,92.9992748 Z M44,92.9992748 C44,90.7905363 45.7953562,89 48,89 C50.209139,89 52,90.7867947 52,92.9992748 L52,119 L44,119 L44,92.9992748 Z" id="Combined-Shape" fill="#212121"></path>
                    <path d="M10,256 L20.2,256 L20.2,265 L10,265 L10,256 Z M50.8,256 L61,256 L61,265 L50.8,265 L50.8,256 Z" id="Combined-Shape" fill="#212121"></path>
                    <path d="M24,154.999989 C24,149.477148 28.4695593,145 33.9965015,145 L40.0034985,145 C45.5244138,145 50,149.475095 50,154.999989 L50,175 L24,175 L24,154.999989 Z" id="Rectangle-13" fill="#212121"></path>
                    <path d="M23,210.999989 C23,205.477148 27.4695593,201 32.9965015,201 L39.0034985,201 C44.5244138,201 49,205.475095 49,210.999989 L49,231 L23,231 L23,210.999989 Z" id="Rectangle-13" fill="#212121"></path>
                    <path d="M59.9444444,69 L53.8333333,69 L53.8333333,77 L59.9444444,77 L59.9444444,69 Z M63,69 L63,77 L71,77 L71,81 L0,81 L0,77 L8,77 L8,69 L0,69 L0,65 L71,65 L71,69 L63,69 Z M48.7407407,69 L42.6296296,69 L42.6296296,77 L48.7407407,77 L48.7407407,69 Z M39.5740741,69 L33.462963,69 L33.462963,77 L39.5740741,77 L39.5740741,69 Z M28.3703704,69 L22.2592593,69 L22.2592593,77 L28.3703704,77 L28.3703704,69 Z M19.2037037,69 L13.0925926,69 L13.0925926,77 L19.2037037,77 L19.2037037,69 Z" id="Combined-Shape" fill="#212121"></path>
                    <path d="M59.9444444,128 L53.8333333,128 L53.8333333,136 L59.9444444,136 L59.9444444,128 Z M63,128 L63,136 L71,136 L71,140 L0,140 L0,136 L8,136 L8,128 L0,128 L0,124 L71,124 L71,128 L63,128 Z M48.7407407,128 L42.6296296,128 L42.6296296,136 L48.7407407,136 L48.7407407,128 Z M39.5740741,128 L33.462963,128 L33.462963,136 L39.5740741,136 L39.5740741,128 Z M28.3703704,128 L22.2592593,128 L22.2592593,136 L28.3703704,136 L28.3703704,128 Z M19.2037037,128 L13.0925926,128 L13.0925926,136 L19.2037037,136 L19.2037037,128 Z" id="Combined-Shape" fill="#212121"></path>
                    <path d="M59.9444444,184 L53.8333333,184 L53.8333333,192 L59.9444444,192 L59.9444444,184 Z M63,184 L63,192 L71,192 L71,196 L0,196 L0,192 L8,192 L8,184 L0,184 L0,180 L71,180 L71,184 L63,184 Z M48.7407407,184 L42.6296296,184 L42.6296296,192 L48.7407407,192 L48.7407407,184 Z M39.5740741,184 L33.462963,184 L33.462963,192 L39.5740741,192 L39.5740741,184 Z M28.3703704,184 L22.2592593,184 L22.2592593,192 L28.3703704,192 L28.3703704,184 Z M19.2037037,184 L13.0925926,184 L13.0925926,192 L19.2037037,192 L19.2037037,184 Z" id="Combined-Shape" fill="#212121"></path>
                    <path d="M59.9444444,240 L53.8333333,240 L53.8333333,248 L59.9444444,248 L59.9444444,240 Z M63,240 L63,248 L71,248 L71,252 L0,252 L0,248 L8,248 L8,240 L0,240 L0,236 L71,236 L71,240 L63,240 Z M48.7407407,240 L42.6296296,240 L42.6296296,248 L48.7407407,248 L48.7407407,240 Z M39.5740741,240 L33.462963,240 L33.462963,248 L39.5740741,248 L39.5740741,240 Z M28.3703704,240 L22.2592593,240 L22.2592593,248 L28.3703704,248 L28.3703704,240 Z M19.2037037,240 L13.0925926,240 L13.0925926,248 L19.2037037,248 L19.2037037,240 Z" id="Combined-Shape" fill="#212121"></path>
                </g>
                <g id="torre2" transform="translate(184.000000, 296.000000)">
                    <g id="Rectangle-12">
                        <use fill="#FFFFFF" fill-rule="evenodd" xlink:href="#path-2"></use>
                        <rect stroke="#212121" stroke-width="4" x="2" y="64" width="67" height="206"></rect>
                    </g>
                    <path d="M48.1111111,38 L22.8888889,38 L18,27 L2,63 L21,63 L21,64 L51,64 L51,63 L69,63 L53,27 L48.1111111,38 Z" id="Combined-Shape" fill="#212121"></path>
                    <path d="M0,17.5 C0,17.5 3.82103663,0 4,0 C4.17896337,0 8,17.5 8,17.5 L8,62.4924893 C8,64.429634 6.43852818,66 4.4910835,66 L3.5089165,66 C1.57099543,66 0,64.4412489 0,62.4924893 L0,17.5 Z" id="Rectangle-3" fill="#212121"></path>
                    <path d="M63,17.5 C63,17.5 66.8210366,0 67,0 C67.1789634,0 71,17.5 71,17.5 L71,62.4924893 C71,64.429634 69.4385282,66 67.4910835,66 L66.5089165,66 C64.5709954,66 63,64.4412489 63,62.4924893 L63,17.5 Z" id="Rectangle-3" fill="#212121"></path>
                    <path d="M20,92.9992748 C20,90.7905363 21.7953562,89 24,89 C26.209139,89 28,90.7867947 28,92.9992748 L28,119 L20,119 L20,92.9992748 Z M28,92.9992748 C28,90.7905363 29.7953562,89 32,89 C34.209139,89 36,90.7867947 36,92.9992748 L36,119 L28,119 L28,92.9992748 Z M36,92.9992748 C36,90.7905363 37.7953562,89 40,89 C42.209139,89 44,90.7867947 44,92.9992748 L44,119 L36,119 L36,92.9992748 Z M44,92.9992748 C44,90.7905363 45.7953562,89 48,89 C50.209139,89 52,90.7867947 52,92.9992748 L52,119 L44,119 L44,92.9992748 Z" id="Combined-Shape" fill="#212121"></path>
                    <path d="M10,256 L20.2,256 L20.2,265 L10,265 L10,256 Z M50.8,256 L61,256 L61,265 L50.8,265 L50.8,256 Z" id="Combined-Shape" fill="#212121"></path>
                    <path d="M24,154.999989 C24,149.477148 28.4695593,145 33.9965015,145 L40.0034985,145 C45.5244138,145 50,149.475095 50,154.999989 L50,175 L24,175 L24,154.999989 Z" id="Rectangle-13" fill="#212121"></path>
                    <path d="M23,210.999989 C23,205.477148 27.4695593,201 32.9965015,201 L39.0034985,201 C44.5244138,201 49,205.475095 49,210.999989 L49,231 L23,231 L23,210.999989 Z" id="Rectangle-13" fill="#212121"></path>
                    <path d="M59.9444444,69 L53.8333333,69 L53.8333333,77 L59.9444444,77 L59.9444444,69 Z M63,69 L63,77 L71,77 L71,81 L0,81 L0,77 L8,77 L8,69 L0,69 L0,65 L71,65 L71,69 L63,69 Z M48.7407407,69 L42.6296296,69 L42.6296296,77 L48.7407407,77 L48.7407407,69 Z M39.5740741,69 L33.462963,69 L33.462963,77 L39.5740741,77 L39.5740741,69 Z M28.3703704,69 L22.2592593,69 L22.2592593,77 L28.3703704,77 L28.3703704,69 Z M19.2037037,69 L13.0925926,69 L13.0925926,77 L19.2037037,77 L19.2037037,69 Z" id="Combined-Shape" fill="#212121"></path>
                    <path d="M59.9444444,128 L53.8333333,128 L53.8333333,136 L59.9444444,136 L59.9444444,128 Z M63,128 L63,136 L71,136 L71,140 L0,140 L0,136 L8,136 L8,128 L0,128 L0,124 L71,124 L71,128 L63,128 Z M48.7407407,128 L42.6296296,128 L42.6296296,136 L48.7407407,136 L48.7407407,128 Z M39.5740741,128 L33.462963,128 L33.462963,136 L39.5740741,136 L39.5740741,128 Z M28.3703704,128 L22.2592593,128 L22.2592593,136 L28.3703704,136 L28.3703704,128 Z M19.2037037,128 L13.0925926,128 L13.0925926,136 L19.2037037,136 L19.2037037,128 Z" id="Combined-Shape" fill="#212121"></path>
                    <path d="M59.9444444,184 L53.8333333,184 L53.8333333,192 L59.9444444,192 L59.9444444,184 Z M63,184 L63,192 L71,192 L71,196 L0,196 L0,192 L8,192 L8,184 L0,184 L0,180 L71,180 L71,184 L63,184 Z M48.7407407,184 L42.6296296,184 L42.6296296,192 L48.7407407,192 L48.7407407,184 Z M39.5740741,184 L33.462963,184 L33.462963,192 L39.5740741,192 L39.5740741,184 Z M28.3703704,184 L22.2592593,184 L22.2592593,192 L28.3703704,192 L28.3703704,184 Z M19.2037037,184 L13.0925926,184 L13.0925926,192 L19.2037037,192 L19.2037037,184 Z" id="Combined-Shape" fill="#212121"></path>
                    <path d="M59.9444444,240 L53.8333333,240 L53.8333333,248 L59.9444444,248 L59.9444444,240 Z M63,240 L63,248 L71,248 L71,252 L0,252 L0,248 L8,248 L8,240 L0,240 L0,236 L71,236 L71,240 L63,240 Z M48.7407407,240 L42.6296296,240 L42.6296296,248 L48.7407407,248 L48.7407407,240 Z M39.5740741,240 L33.462963,240 L33.462963,248 L39.5740741,248 L39.5740741,240 Z M28.3703704,240 L22.2592593,240 L22.2592593,248 L28.3703704,248 L28.3703704,240 Z M19.2037037,240 L13.0925926,240 L13.0925926,248 L19.2037037,248 L19.2037037,240 Z" id="Combined-Shape" fill="#212121"></path>
                </g>
                <path d="M446.251814,143 C446.087427,142.360914 446,141.690814 446,141.000113 L446,138.999887 C446,137.542782 446.389919,136.176664 447.071094,135 L440.004391,135 C435.583688,135 432,131.422258 432,127.000113 L432,124.999887 C432,120.581671 435.584976,117 440.004391,117 L500.995609,117 C505.416312,117 509,120.577742 509,124.999887 L509,127.000113 C509,128.457218 508.610081,129.823336 507.928906,131 L514.995609,131 C519.416312,131 523,134.577742 523,138.999887 L523,141.000113 C523,145.418329 519.415024,149 514.995609,149 L493.748186,149 C493.912573,149.639086 494,150.309186 494,150.999887 L494,153.000113 C494,157.418329 490.415024,161 485.995609,161 L425.004391,161 C420.583688,161 417,157.422258 417,153.000113 L417,150.999887 C417,146.581671 420.584976,143 425.004391,143 L446.251814,143 Z M201.251814,235 C201.087427,234.360914 201,233.690814 201,233.000113 L201,230.999887 C201,229.542782 201.389919,228.176664 202.071094,227 L195.004391,227 C190.583688,227 187,223.422258 187,219.000113 L187,216.999887 C187,212.581671 190.584976,209 195.004391,209 L255.995609,209 C260.416312,209 264,212.577742 264,216.999887 L264,219.000113 C264,220.457218 263.610081,221.823336 262.928906,223 L269.995609,223 C274.416312,223 278,226.577742 278,230.999887 L278,233.000113 C278,237.418329 274.415024,241 269.995609,241 L248.748186,241 C248.912573,241.639086 249,242.309186 249,242.999887 L249,245.000113 C249,249.418329 245.415024,253 240.995609,253 L180.004391,253 C175.583688,253 172,249.422258 172,245.000113 L172,242.999887 C172,238.581671 175.584976,235 180.004391,235 L201.251814,235 Z M67.2518139,169 C67.0874266,168.360914 67,167.690814 67,167.000113 L67,164.999887 C67,163.542782 67.3899185,162.176664 68.0710939,161 L61.004391,161 C56.5836879,161 53,157.422258 53,153.000113 L53,150.999887 C53,146.581671 56.584976,143 61.004391,143 L121.995609,143 C126.416312,143 130,146.577742 130,150.999887 L130,153.000113 C130,154.457218 129.610081,155.823336 128.928906,157 L135.995609,157 C140.416312,157 144,160.577742 144,164.999887 L144,167.000113 C144,171.418329 140.415024,175 135.995609,175 L114.748186,175 C114.912573,175.639086 115,176.309186 115,176.999887 L115,179.000113 C115,183.418329 111.415024,187 106.995609,187 L46.004391,187 C41.5836879,187 38,183.422258 38,179.000113 L38,176.999887 C38,172.581671 41.584976,169 46.004391,169 L67.2518139,169 Z M247,166 C253.5,164 263,167 263,156.5 C263,146 255.008129,173 247,173 C238.991871,173 224.5,152.424868 224.5,158.5 C224.5,164.575132 240.5,168 247,166 Z M277.655844,174.081847 C282.467532,172.390947 289.5,174.927298 289.5,166.050069 C289.5,157.17284 283.58394,180 277.655844,180 C271.727749,180 261,162.604746 261,167.740969 C261,172.877192 272.844156,175.772748 277.655844,174.081847 Z M227.655844,185.191501 C232.467532,183.817644 239.5,185.878429 239.5,178.665681 C239.5,171.452932 233.58394,190 227.655844,190 C221.727749,190 211,175.866356 211,180.039538 C211,184.212719 222.844156,186.565358 227.655844,185.191501 Z" id="Combined-Shape" fill="#212121"></path>
                <rect id="Rectangle-10" fill="#212121" x="0" y="568" width="523" height="12" rx="6"></rect>
                <g id="bigB" transform="translate(251.000000, 0.000000)">
                    <g id="Combined-Shape">
                        <use fill="#FFFFFF" fill-rule="evenodd" xlink:href="#path-3"></use>
                        <path stroke="#212121" stroke-width="4" d="M60,160 L151,160 L151,566 L102.5,566 L2,566 L2,475 L58,475 L60,475 L60,473 L60,160 Z"></path>
                    </g>
                    <path d="M120,454 L116,454 L116,428 L113.136364,419 L110.272727,428 L110.272727,454 L108.363636,454 L108.363636,428 L105.5,419 L102.636364,428 L102.636364,454 L100.727273,454 L100.727273,428 L97.8636364,419 L95,428 L95,454 L91,454 L91,428 L88,419 L85,428 L85,454 L83,454 L83,428 L80,419 L77,428 L77,454 L75,454 L75,428 L72,419 L69,428 L69,454 L68,454 L68,456 L143,456 L143,454 L142,454 L142,428 L139,419 L136,428 L136,454 L134,454 L134,428 L131,419 L128,428 L128,454 L126,454 L126,428 L123,419 L120,428 L120,454 Z M61,417 L150,417 L150,419 L61,419 L61,417 Z" id="Combined-Shape" fill="#212121"></path>
                    <path d="M119.033708,540.410256 L115.438202,540.410256 L115.438202,519.74359 L112.864147,512.589744 L110.290092,519.74359 L110.290092,540.410256 L108.574055,540.410256 L108.574055,519.74359 L106,512.589744 L103.425945,519.74359 L103.425945,540.410256 L101.709908,540.410256 L101.709908,519.74359 L99.1358529,512.589744 L96.5617978,519.74359 L96.5617978,540.410256 L92.9662921,540.410256 L92.9662921,519.74359 L90.2696629,512.589744 L87.5730337,519.74359 L87.5730337,540.410256 L85.7752809,540.410256 L85.7752809,519.74359 L83.0786517,512.589744 L80.3820225,519.74359 L80.3820225,540.410256 L78.5842697,540.410256 L78.5842697,519.74359 L75.8876404,512.589744 L73.1910112,519.74359 L73.1910112,540.410256 L72.2921348,540.410256 L72.2921348,542 L139.707865,542 L139.707865,540.410256 L138.808989,540.410256 L138.808989,519.74359 L136.11236,512.589744 L133.41573,519.74359 L133.41573,540.410256 L131.617978,540.410256 L131.617978,519.74359 L128.921348,512.589744 L126.224719,519.74359 L126.224719,540.410256 L124.426966,540.410256 L124.426966,519.74359 L121.730337,512.589744 L119.033708,519.74359 L119.033708,540.410256 Z M66,511 L146,511 L146,512.589744 L66,512.589744 L66,511 Z" id="Combined-Shape" fill="#212121"></path>
                    <path d="M120,373 L116,373 L116,347 L113.136364,338 L110.272727,347 L110.272727,373 L108.363636,373 L108.363636,347 L105.5,338 L102.636364,347 L102.636364,373 L100.727273,373 L100.727273,347 L97.8636364,338 L95,347 L95,373 L91,373 L91,347 L88,338 L85,347 L85,373 L83,373 L83,347 L80,338 L77,347 L77,373 L75,373 L75,347 L72,338 L69,347 L69,373 L68,373 L68,375 L143,375 L143,373 L142,373 L142,347 L139,338 L136,347 L136,373 L134,373 L134,347 L131,338 L128,347 L128,373 L126,373 L126,347 L123,338 L120,347 L120,373 Z M61,336 L150,336 L150,338 L61,338 L61,336 Z" id="Combined-Shape" fill="#212121"></path>
                    <path d="M120,197 L116,197 L116,171 L113.136364,162 L110.272727,171 L110.272727,197 L108.363636,197 L108.363636,171 L105.5,162 L102.636364,171 L102.636364,197 L100.727273,197 L100.727273,171 L97.8636364,162 L95,171 L95,197 L91,197 L91,171 L88,162 L85,171 L85,197 L83,197 L83,171 L80,162 L77,171 L77,197 L75,197 L75,171 L72,162 L69,171 L69,197 L68,197 L68,199 L143,199 L143,197 L142,197 L142,171 L139,162 L136,171 L136,197 L134,197 L134,171 L131,162 L128,171 L128,197 L126,197 L126,171 L123,162 L120,171 L120,197 Z M61,160 L150,160 L150,162 L61,162 L61,160 Z" id="Combined-Shape" fill="#212121"></path>
                    <path d="M61,477.613636 C61,477.613636 64.8210366,445 65,445 C65.1789634,445 69,477.613636 69,477.613636 L69,564.498322 C69,566.432245 67.4385282,568 65.4910835,568 L64.5089165,568 C62.5709954,568 61,566.431175 61,564.498322 L61,477.613636 Z" id="Rectangle-3" fill="#212121"></path>
                    <path d="M136.141628,482 L128.481221,482 L128.481221,490 L136.141628,490 L136.141628,482 Z M139.971831,482 L139.971831,490 L150,490 L150,494 L61,494 L61,490 L71.028169,490 L71.028169,482 L61,482 L61,478 L150,478 L150,482 L139.971831,482 Z M122.097548,482 L114.437141,482 L114.437141,490 L122.097548,490 L122.097548,482 Z M110.606938,482 L102.946531,482 L102.946531,490 L110.606938,490 L110.606938,482 Z M96.5628586,482 L88.9024517,482 L88.9024517,490 L96.5628586,490 L96.5628586,482 Z M85.0722483,482 L77.4118414,482 L77.4118414,490 L85.0722483,490 L85.0722483,482 Z" id="Rectangle-3" fill="#212121"></path>
                    <path d="M142,474.613636 C142,474.613636 145.821037,442 146,442 C146.178963,442 150,474.613636 150,474.613636 L150,561.498322 C150,563.432245 148.438528,565 146.491084,565 L145.508916,565 C143.570995,565 142,563.431175 142,561.498322 L142,474.613636 Z" id="Rectangle-3" fill="#212121"></path>
                    <g id="Rectangle-20">
                        <use fill="#FFFFFF" fill-rule="evenodd" xlink:href="#path-4"></use>
                        <rect stroke="#212121" stroke-width="4" x="54" y="201" width="103" height="93"></rect>
                    </g>
                    <polygon id="Rectangle-21" fill="#212121" points="80 102 131 102 153 158.5 58 158.5"></polygon>
                    <g id="Rectangle-22">
                        <use fill="#FFFFFF" fill-rule="evenodd" xlink:href="#path-5"></use>
                        <path stroke="#212121" stroke-width="4" d="M82,73 L129,73 L129,100 L82,100 L82,73 Z"></path>
                    </g>
                    <path d="M52.5015649,558.25 L47.2511737,558.25 L47.2511737,564.75 L52.5015649,564.75 L52.5015649,558.25 Z M55.1267606,558.25 L55.1267606,564.75 L62,564.75 L62,568 L1,568 L1,564.75 L7.87323944,564.75 L7.87323944,558.25 L1,558.25 L1,555 L62,555 L62,558.25 L55.1267606,558.25 Z M42.8758477,558.25 L37.6254564,558.25 L37.6254564,564.75 L42.8758477,564.75 L42.8758477,558.25 Z M35.0002608,558.25 L29.7498696,558.25 L29.7498696,564.75 L35.0002608,564.75 L35.0002608,558.25 Z M25.3745436,558.25 L20.1241523,558.25 L20.1241523,564.75 L25.3745436,564.75 L25.3745436,558.25 Z M17.4989567,558.25 L12.2485655,558.25 L12.2485655,564.75 L17.4989567,564.75 L17.4989567,558.25 Z" id="Combined-Shape" fill="#212121"></path>
                    <path d="M133.543036,555.25 L126.657277,555.25 L126.657277,561.75 L133.543036,561.75 L133.543036,555.25 Z M136.985915,555.25 L136.985915,561.75 L146,561.75 L146,565 L66,565 L66,561.75 L75.0140845,561.75 L75.0140845,555.25 L66,555.25 L66,552 L146,552 L146,555.25 L136.985915,555.25 Z M120.919144,555.25 L114.033385,555.25 L114.033385,561.75 L120.919144,561.75 L120.919144,555.25 Z M110.590506,555.25 L103.704747,555.25 L103.704747,561.75 L110.590506,561.75 L110.590506,555.25 Z M97.9666145,555.25 L91.0808555,555.25 L91.0808555,561.75 L97.9666145,561.75 L97.9666145,555.25 Z M87.637976,555.25 L80.752217,555.25 L80.752217,561.75 L87.637976,561.75 L87.637976,555.25 Z" id="Combined-Shape" fill="#212121"></path>
                    <path d="M143.501565,395.25 L138.251174,395.25 L138.251174,401.75 L143.501565,401.75 L143.501565,395.25 Z M146.126761,395.25 L146.126761,401.75 L153,401.75 L153,405 L105.5,405 L58,405 L58,401.75 L64.8732394,401.75 L64.8732394,395.25 L58,395.25 L58,392 L105.5,392 L153,392 L153,395.25 L146.126761,395.25 Z M133.875848,395.25 L128.625456,395.25 L128.625456,401.75 L133.875848,401.75 L133.875848,395.25 Z M126.000261,395.25 L120.74987,395.25 L120.74987,401.75 L126.000261,401.75 L126.000261,395.25 Z M116.374544,395.25 L115.56338,395.25 L112.126761,395.25 L112.126761,401.75 L115.56338,401.75 L116.374544,401.75 L116.374544,395.25 Z M108.498957,395.25 L104.251174,395.25 L104.251174,401.75 L108.498957,401.75 L108.498957,395.25 Z M98.8732394,395.25 L94.6254564,395.25 L94.6254564,401.75 L98.8732394,401.75 L98.8732394,395.25 Z M92.0002608,395.25 L86.7498696,395.25 L86.7498696,401.75 L92.0002608,401.75 L92.0002608,395.25 Z M82.3745436,395.25 L77.1241523,395.25 L77.1241523,401.75 L82.3745436,401.75 L82.3745436,395.25 Z M74.4989567,395.25 L69.2485655,395.25 L69.2485655,401.75 L74.4989567,401.75 L74.4989567,395.25 Z" id="Combined-Shape" fill="#212121"></path>
                    <path d="M143.501565,317.25 L138.251174,317.25 L138.251174,323.75 L143.501565,323.75 L143.501565,317.25 Z M146.126761,317.25 L146.126761,323.75 L153,323.75 L153,327 L105.5,327 L58,327 L58,323.75 L64.8732394,323.75 L64.8732394,317.25 L58,317.25 L58,314 L105.5,314 L153,314 L153,317.25 L146.126761,317.25 Z M133.875848,317.25 L128.625456,317.25 L128.625456,323.75 L133.875848,323.75 L133.875848,317.25 Z M126.000261,317.25 L120.74987,317.25 L120.74987,323.75 L126.000261,323.75 L126.000261,317.25 Z M116.374544,317.25 L115.56338,317.25 L112.126761,317.25 L112.126761,323.75 L115.56338,323.75 L116.374544,323.75 L116.374544,317.25 Z M108.498957,317.25 L104.251174,317.25 L104.251174,323.75 L108.498957,323.75 L108.498957,317.25 Z M98.8732394,317.25 L94.6254564,317.25 L94.6254564,323.75 L98.8732394,323.75 L98.8732394,317.25 Z M92.0002608,317.25 L86.7498696,317.25 L86.7498696,323.75 L92.0002608,323.75 L92.0002608,317.25 Z M82.3745436,317.25 L77.1241523,317.25 L77.1241523,323.75 L82.3745436,323.75 L82.3745436,317.25 Z M74.4989567,317.25 L69.2485655,317.25 L69.2485655,323.75 L74.4989567,323.75 L74.4989567,317.25 Z" id="Combined-Shape" fill="#212121"></path>
                    <path d="M125.90084,83.25 L123.082209,83.25 L123.082209,89.75 L125.90084,89.75 L125.90084,83.25 Z M127.310156,83.25 L127.310156,89.75 L131,89.75 L131,93 L105.5,93 L80,93 L80,89.75 L83.6898443,89.75 L83.6898443,83.25 L80,83.25 L80,80 L105.5,80 L131,80 L131,83.25 L127.310156,83.25 Z M120.73335,83.25 L117.914719,83.25 L117.914719,89.75 L120.73335,89.75 L120.73335,83.25 Z M116.505403,83.25 L113.686772,83.25 L113.686772,89.75 L116.505403,89.75 L116.505403,83.25 Z M111.337913,83.25 L110.902446,83.25 L109.057524,83.25 L109.057524,89.75 L110.902446,89.75 L111.337913,89.75 L111.337913,83.25 Z M107.109966,83.25 L104.829577,83.25 L104.829577,89.75 L107.109966,89.75 L107.109966,83.25 Z M101.942476,83.25 L99.6620871,83.25 L99.6620871,89.75 L101.942476,89.75 L101.942476,83.25 Z M98.2527716,83.25 L95.4341405,83.25 L95.4341405,89.75 L98.2527716,89.75 L98.2527716,83.25 Z M93.0852813,83.25 L90.2666502,83.25 L90.2666502,89.75 L93.0852813,89.75 L93.0852813,83.25 Z M88.8573347,83.25 L86.0387036,83.25 L86.0387036,89.75 L88.8573347,89.75 L88.8573347,83.25 Z" id="Combined-Shape" fill="#212121"></path>
                    <polygon id="Rectangle-22" fill="#212121" points="105.5 0 131 72 80 72"></polygon>
                    <circle id="Oval-11" stroke="#212121" stroke-width="4" fill="#FFFFFF" cx="105" cy="248" r="40"></circle>
                    <path d="M23,484.005074 C23,481.793133 24.7953562,480 27,480 C29.209139,480 31,481.800684 31,484.005074 L31,511 L23,511 L23,484.005074 Z M31,484.005074 C31,481.793133 32.7953562,480 35,480 C37.209139,480 39,481.800684 39,484.005074 L39,511 L31,511 L31,484.005074 Z" id="Combined-Shape" fill="#212121"></path>
                    <path d="M23,525.005074 C23,522.793133 24.7953562,521 27,521 C29.209139,521 31,522.800684 31,525.005074 L31,552 L23,552 L23,525.005074 Z M31,525.005074 C31,522.793133 32.7953562,521 35,521 C37.209139,521 39,522.800684 39,525.005074 L39,552 L31,552 L31,525.005074 Z" id="Combined-Shape" fill="#212121"></path>
                    <rect id="Rectangle-23" fill="#212121" x="58" y="474" width="5" height="94"></rect>
                    <rect id="Rectangle-24" fill="#212121" x="1" y="455" width="60" height="18"></rect>
                    <rect id="Rectangle-24" fill="#212121" x="152" y="455" width="61" height="18"></rect>
                    <g id="Rectangle-55">
                        <use fill="#FFFFFF" fill-rule="evenodd" xlink:href="#path-6"></use>
                        <rect stroke="#212121" stroke-width="4" x="154" y="475" width="57" height="91"></rect>
                    </g>
                    <path d="M175,484.005074 C175,481.793133 176.795356,480 179,480 C181.209139,480 183,481.800684 183,484.005074 L183,511 L175,511 L175,484.005074 Z M183,484.005074 C183,481.793133 184.795356,480 187,480 C189.209139,480 191,481.800684 191,484.005074 L191,511 L183,511 L183,484.005074 Z" id="Combined-Shape" fill="#212121"></path>
                    <path d="M175,525.005074 C175,522.793133 176.795356,521 179,521 C181.209139,521 183,522.800684 183,525.005074 L183,552 L175,552 L175,525.005074 Z M183,525.005074 C183,522.793133 184.795356,521 187,521 C189.209139,521 191,522.800684 191,525.005074 L191,552 L183,552 L183,525.005074 Z" id="Combined-Shape" fill="#212121"></path>
                    <path d="M203.501565,558.25 L198.251174,558.25 L198.251174,564.75 L203.501565,564.75 L203.501565,558.25 Z M206.126761,558.25 L206.126761,564.75 L213,564.75 L213,568 L152,568 L152,564.75 L158.873239,564.75 L158.873239,558.25 L152,558.25 L152,555 L213,555 L213,558.25 L206.126761,558.25 Z M193.875848,558.25 L188.625456,558.25 L188.625456,564.75 L193.875848,564.75 L193.875848,558.25 Z M186.000261,558.25 L180.74987,558.25 L180.74987,564.75 L186.000261,564.75 L186.000261,558.25 Z M176.374544,558.25 L171.124152,558.25 L171.124152,564.75 L176.374544,564.75 L176.374544,558.25 Z M168.498957,558.25 L163.248565,558.25 L163.248565,564.75 L168.498957,564.75 L168.498957,558.25 Z" id="Combined-Shape" fill="#212121"></path>
                    <polygon id="Rectangle-26" fill="#212121" points="105 211 107 215 106 215 106 238 106.5 243 106 251 104 251 103.5 243 104 238 104 215 103 215"></polygon>
                    <rect id="Rectangle-28" fill="#212121" transform="translate(93.074116, 263.074116) scale(-1, 1) rotate(45.000000) translate(-93.074116, -263.074116) " x="75.0845238" y="262.574116" width="35.9791847" height="1"></rect>
                    <rect id="Rectangle-27" fill="#212121" transform="translate(105.000000, 251.000000) rotate(-45.000000) translate(-105.000000, -251.000000) " x="103" y="249" width="4" height="4"></rect>
                    <path d="M107,301 L113,301 L113,307 L107,307 L107,301 Z M117,301 L123,301 L123,307 L117,307 L117,301 Z M127,301 L133,301 L133,307 L127,307 L127,301 Z M137,301 L143,301 L143,307 L137,307 L137,301 Z" id="Combined-Shape" fill="#212121"></path>
                    <path d="M67,301 L73,301 L73,307 L67,307 L67,301 Z M77,301 L83,301 L83,307 L77,307 L77,301 Z M87,301 L93,301 L93,307 L87,307 L87,301 Z M97,301 L103,301 L103,307 L97,307 L97,301 Z" id="Combined-Shape" fill="#212121"></path>
                </g>
                <g id="centrale" transform="translate(85.000000, 405.000000)">
                    <g id="Rectangle-17">
                        <use fill="#FFFFFF" fill-rule="evenodd" xlink:href="#path-7"></use>
                        <rect stroke="#212121" stroke-width="4" x="2" y="41" width="99" height="120"></rect>
                    </g>
                    <path d="M83.8338783,6.78933011 L69.0067239,35.0057704 L98.6610328,35.0057704 L83.8338783,6.78933011 Z M51.399478,6.78933011 L36.5723235,35.0057704 L66.2266324,35.0057704 L51.399478,6.78933011 Z M18.9650776,6.78933011 L4.13792317,35.0057704 L33.7922321,35.0057704 L18.9650776,6.78933011 Z M0,0 L103,0 L103,41 L0,41 L0,0 Z" id="Combined-Shape" fill="#212121"></path>
                    <path d="M18,63.0050741 C18,60.7931328 19.7953562,59 22,59 C24.209139,59 26,60.8006843 26,63.0050741 L26,90 L18,90 L18,63.0050741 Z M26,63.0050741 C26,60.7931328 27.7953562,59 30,59 C32.209139,59 34,60.8006843 34,63.0050741 L34,90 L26,90 L26,63.0050741 Z M44,63.0050741 C44,60.7931328 45.7953562,59 48,59 C50.209139,59 52,60.8006843 52,63.0050741 L52,90 L44,90 L44,63.0050741 Z M52,63.0050741 C52,60.7931328 53.7953562,59 56,59 C58.209139,59 60,60.8006843 60,63.0050741 L60,90 L52,90 L52,63.0050741 Z M70,63.0050741 C70,60.7931328 71.7953562,59 74,59 C76.209139,59 78,60.8006843 78,63.0050741 L78,90 L70,90 L70,63.0050741 Z M78,63.0050741 C78,60.7931328 79.7953562,59 82,59 C84.209139,59 86,60.8006843 86,63.0050741 L86,90 L78,90 L78,63.0050741 Z" id="Combined-Shape" fill="#212121"></path>
                    <path d="M18,115.005074 C18,112.793133 19.7953562,111 22,111 C24.209139,111 26,112.800684 26,115.005074 L26,142 L18,142 L18,115.005074 Z M26,115.005074 C26,112.793133 27.7953562,111 30,111 C32.209139,111 34,112.800684 34,115.005074 L34,142 L26,142 L26,115.005074 Z M44,115.005074 C44,112.793133 45.7953562,111 48,111 C50.209139,111 52,112.800684 52,115.005074 L52,142 L44,142 L44,115.005074 Z M52,115.005074 C52,112.793133 53.7953562,111 56,111 C58.209139,111 60,112.800684 60,115.005074 L60,142 L52,142 L52,115.005074 Z M70,115.005074 C70,112.793133 71.7953562,111 74,111 C76.209139,111 78,112.800684 78,115.005074 L78,142 L70,142 L70,115.005074 Z M78,115.005074 C78,112.793133 79.7953562,111 82,111 C84.209139,111 86,112.800684 86,115.005074 L86,142 L78,142 L78,115.005074 Z" id="Combined-Shape" fill="#212121"></path>
                    <path d="M84.2073552,45.5 L76.0305164,45.5 L76.0305164,52.5 L84.2073552,52.5 L84.2073552,45.5 Z M88.2957746,45.5 L88.2957746,52.5 L99,52.5 L99,56 L4,56 L4,52.5 L14.7042254,52.5 L14.7042254,45.5 L4,45.5 L4,42 L99,42 L99,45.5 L88.2957746,45.5 Z M69.2164841,45.5 L61.0396453,45.5 L61.0396453,52.5 L69.2164841,52.5 L69.2164841,45.5 Z M56.9512259,45.5 L48.7743871,45.5 L48.7743871,52.5 L56.9512259,52.5 L56.9512259,45.5 Z M41.9603547,45.5 L33.7835159,45.5 L33.7835159,52.5 L41.9603547,52.5 L41.9603547,45.5 Z M29.6950965,45.5 L21.5182577,45.5 L21.5182577,52.5 L29.6950965,52.5 L29.6950965,45.5 Z" id="Combined-Shape" fill="#212121"></path>
                    <path d="M84.2073552,98.25 L76.0305164,98.25 L76.0305164,104.75 L84.2073552,104.75 L84.2073552,98.25 Z M88.2957746,98.25 L88.2957746,104.75 L99,104.75 L99,108 L4,108 L4,104.75 L14.7042254,104.75 L14.7042254,98.25 L4,98.25 L4,95 L99,95 L99,98.25 L88.2957746,98.25 Z M69.2164841,98.25 L61.0396453,98.25 L61.0396453,104.75 L69.2164841,104.75 L69.2164841,98.25 Z M56.9512259,98.25 L48.7743871,98.25 L48.7743871,104.75 L56.9512259,104.75 L56.9512259,98.25 Z M41.9603547,98.25 L33.7835159,98.25 L33.7835159,104.75 L41.9603547,104.75 L41.9603547,98.25 Z M29.6950965,98.25 L21.5182577,98.25 L21.5182577,104.75 L29.6950965,104.75 L29.6950965,98.25 Z" id="Combined-Shape" fill="#212121"></path>
                    <path d="M84.2073552,150.25 L76.0305164,150.25 L76.0305164,156.75 L84.2073552,156.75 L84.2073552,150.25 Z M88.2957746,150.25 L88.2957746,156.75 L99,156.75 L99,160 L4,160 L4,156.75 L14.7042254,156.75 L14.7042254,150.25 L4,150.25 L4,147 L99,147 L99,150.25 L88.2957746,150.25 Z M69.2164841,150.25 L61.0396453,150.25 L61.0396453,156.75 L69.2164841,156.75 L69.2164841,150.25 Z M56.9512259,150.25 L48.7743871,150.25 L48.7743871,156.75 L56.9512259,156.75 L56.9512259,150.25 Z M41.9603547,150.25 L33.7835159,150.25 L33.7835159,156.75 L41.9603547,156.75 L41.9603547,150.25 Z M29.6950965,150.25 L21.5182577,150.25 L21.5182577,156.75 L29.6950965,156.75 L29.6950965,150.25 Z" id="Combined-Shape" fill="#212121"></path>
                </g>
            </g>
        </g>
    </g>
</svg>