<?xml version="1.0" encoding="UTF-8"?>
<svg width="724px" height="444px" viewBox="0 0 724 444" version="1.1" xmlns="http://www.w3.org/2000/svg" xmlns:xlink="http://www.w3.org/1999/xlink">
    <!-- Generator: Sketch 43.1 (39012) - http://www.bohemiancoding.com/sketch -->
    <title>Colosseo</title>
    <desc>Created with Sketch.</desc>
    <defs>
        <path d="M221,167 L322,167 L323.165019,168.014694 C331.08201,174.910138 342.871104,173.90819 348.5,167 L348.5,167 L575.004388,167 C578.315673,167 581.455431,169.647193 582.017246,172.912743 L613,353 L221,353 L221,167 Z" id="path-1"></path>
        <polygon id="path-2" points="0 3 103.696552 3 103.696552 24.2238806 103.696552 61.5 154.5 104 154.5 161 0 161"></polygon>
        <path d="M29.6302518,31.9560573 C30.1106005,27.5620482 34.039472,23.4604463 38.4100609,22.794198 L186.589939,0.205801964 C190.958545,-0.460144072 195.704575,2.37503076 197.188793,6.53357656 L303,303 L0,303 L29.6302518,31.9560573 Z" id="path-3"></path>
    </defs>
    <g id="Page-1" stroke="none" stroke-width="1" fill="none" fill-rule="evenodd">
        <g id="Citys" transform="translate(-358.000000, -507.000000)">
            <g id="Colosseo" transform="translate(358.000000, 507.000000)">
                <g id="Rectangle-2">
                    <use fill="#FFFFFF" fill-rule="evenodd" xlink:href="#path-1"></use>
                    <path stroke="#043B34" stroke-width="6" d="M221,164 L218,164 L218,167 L218,353 L218,356 L221,356 L613,356 L616.560203,356 L615.956564,352.491344 L584.97381,172.404087 C584.16441,167.699453 579.776629,164 575.004388,164 L348.5,164 L347.07465,164 L346.174295,165.104981 C341.489749,170.854197 331.609169,171.390927 325.135361,165.752449 L323.970342,164.737755 L323.12329,164 L322,164 L221,164 Z"></path>
                </g>
                <g id="finestredx" transform="translate(332.000000, 179.000000)" fill="#043B34">
                    <path d="M212,4.00650452 C212,1.79377317 213.793946,0 216.006505,0 L225,0 L225,8.99349548 C225,11.2062268 223.206054,13 220.993495,13 L212,13 L212,4.00650452 Z" id="Rectangle-7"></path>
                    <path d="M159,4.00650452 C159,1.79377317 160.793946,0 163.006505,0 L172,0 L172,8.99349548 C172,11.2062268 170.206054,13 167.993495,13 L159,13 L159,4.00650452 Z" id="Rectangle-7"></path>
                    <path d="M106,4.00650452 C106,1.79377317 107.793946,0 110.006505,0 L119,0 L119,8.99349548 C119,11.2062268 117.206054,13 114.993495,13 L106,13 L106,4.00650452 Z" id="Rectangle-7"></path>
                    <path d="M53,4.00650452 C53,1.79377317 54.7939455,0 57.0065045,0 L66,0 L66,8.99349548 C66,11.2062268 64.2060545,13 61.9934955,13 L53,13 L53,4.00650452 Z" id="Rectangle-7"></path>
                    <path d="M53,4.00650452 C53,1.79377317 54.7939455,0 57.0065045,0 L66,0 L66,8.99349548 C66,11.2062268 64.2060545,13 61.9934955,13 L53,13 L53,4.00650452 Z" id="Rectangle-7"></path>
                    <path d="M0,4.00650452 C0,1.79377317 1.79394555,0 4.00650452,0 L13,0 L13,8.99349548 C13,11.2062268 11.2060545,13 8.99349548,13 L0,13 L0,4.00650452 Z" id="Rectangle-7"></path>
                </g>
                <g id="archi2livello" transform="translate(452.000000, 310.000000)" fill="#043B34">
                    <path d="M0,12.8349715 C0,5.74641249 5.74564309,0 12.8367347,0 L12.8367347,0 C19.9262675,0 25.6734694,5.74498887 25.6734694,12.8349715 L25.6734694,45 L0,45 L0,12.8349715 Z" id="Rectangle-6"></path>
                    <path d="M40.7755102,12.8349715 C40.7755102,5.74641249 46.5211533,0 53.6122449,0 L53.6122449,0 C60.7017777,0 66.4489796,5.74498887 66.4489796,12.8349715 L66.4489796,45 L40.7755102,45 L40.7755102,12.8349715 Z" id="Rectangle-6"></path>
                    <path d="M81.5510204,12.8349715 C81.5510204,5.74641249 87.2966635,0 94.3877551,0 L94.3877551,0 C101.477288,0 107.22449,5.74498887 107.22449,12.8349715 L107.22449,45 L81.5510204,45 L81.5510204,12.8349715 Z" id="Rectangle-6"></path>
                    <path d="M122.326531,12.8349715 C122.326531,5.74641249 128.072174,0 135.163265,0 L135.163265,0 C142.252798,0 148,5.74498887 148,12.8349715 L148,45 L122.326531,45 L122.326531,12.8349715 Z" id="Rectangle-6"></path>
                </g>
                <g id="archi2livello" transform="translate(398.000000, 234.000000)" fill="#043B34">
                    <path d="M0,12.1370454 C0,5.4339403 5.43506779,0 12.1428571,0 L12.1428571,0 C18.849172,0 24.2857143,5.43620668 24.2857143,12.1370454 L24.2857143,40 L0,40 L0,12.1370454 Z" id="Rectangle-6"></path>
                    <path d="M38.5714286,12.1370454 C38.5714286,5.4339403 44.0064964,0 50.7142857,0 L50.7142857,0 C57.4206005,0 62.8571429,5.43620668 62.8571429,12.1370454 L62.8571429,40 L38.5714286,40 L38.5714286,12.1370454 Z" id="Rectangle-6"></path>
                    <path d="M77.1428571,12.1370454 C77.1428571,5.4339403 82.5779249,0 89.2857143,0 L89.2857143,0 C95.9920291,0 101.428571,5.43620668 101.428571,12.1370454 L101.428571,40 L77.1428571,40 L77.1428571,12.1370454 Z" id="Rectangle-6"></path>
                    <path d="M115.714286,12.1370454 C115.714286,5.4339403 121.149354,0 127.857143,0 L127.857143,0 C134.563458,0 140,5.43620668 140,12.1370454 L140,40 L115.714286,40 L115.714286,12.1370454 Z" id="Rectangle-6"></path>
                    <path d="M154.285714,12.1370454 C154.285714,5.4339403 159.720782,0 166.428571,0 L166.428571,0 C173.134886,0 178.571429,5.43620668 178.571429,12.1370454 L178.571429,40 L154.285714,40 L154.285714,12.1370454 Z" id="Rectangle-6"></path>
                </g>
                <path d="M602,294 L410.005928,294 C405.583355,294 402,290.418714 402,286 C402,281.582873 405.585012,278 410.005928,278 L598.990166,278 C600.652577,278 602,279.346846 602,281.006311 L602,294 Z" id="Rectangle" stroke="#043B34" stroke-width="8"></path>
                <path d="M592,217 L245.998159,217 C242.68902,217 240,214.308273 240,211 C240,207.686309 242.685764,205 245.998159,205 L586.001841,205 C589.31098,205 592,207.691727 592,211 L592,217 Z" id="Rectangle" stroke="#043B34" stroke-width="4"></path>
                <g id="center" transform="translate(284.000000, 192.000000)">
                    <g id="Rectangle-8">
                        <use fill="#FFFFFF" fill-rule="evenodd" xlink:href="#path-2"></use>
                        <path stroke="#043B34" stroke-width="6" d="M106.696552,60.0983483 L106.696552,24.2238806 L106.696552,3 L106.696552,0 L103.696552,0 L0,0 L-3,0 L-3,3 L-3,161 L-3,164 L0,164 L154.5,164 L157.5,164 L157.5,161 L157.5,104 L157.5,102.598348 L156.424928,101.698989 L106.696552,60.0983483 Z"></path>
                    </g>
                    <path d="M49,118.295317 C49,106.142294 58.847064,96.2903226 71,96.2903226 C83.1502645,96.2903226 93,106.133565 93,118.295317 L93,163 L49,163 L49,118.295317 Z M105,118.004995 C105,105.851972 114.847064,96 127,96 C139.150264,96 149,105.843243 149,118.004995 L149,162.709677 L105,162.709677 L105,118.004995 Z M21,37.5003469 C21,30.0443112 27.0425165,24 34.5,24 C41.9558441,24 48,30.0534116 48,37.5003469 L48,64 L21,64 L21,37.5003469 Z M63,37.5003469 C63,30.0443112 69.0425165,24 76.5,24 C83.9558441,24 90,30.0534116 90,37.5003469 L90,64 L63,64 L63,37.5003469 Z" id="Combined-Shape" fill="#043B34"></path>
                    <path d="M106.5,13.5 L16.9933542,13.5 C13.9634586,13.5 11.5,11.0325794 11.5,8 C11.5,4.96582316 13.9658591,2.5 16.9933542,2.5 L101.006646,2.5 C104.036541,2.5 106.5,4.96742063 106.5,8 L106.5,13.5 Z M37.5,74.5 L118.996543,74.5 C122.532269,74.5 127.131368,77.1180395 128.934351,80.1546428 L132.108157,85.5 L43.0069073,85.5 C39.9685829,85.5 37.5,83.0316321 37.5,80 L37.5,74.5 Z" id="Combined-Shape" stroke="#043B34" stroke-width="5"></path>
                </g>
                <g id="Group" transform="translate(226.000000, 0.000000)" fill="#043B34">
                    <path d="M350.251814,26 C350.087427,25.3609143 350,24.6908138 350,24.0001134 L350,21.9998866 C350,20.5427821 350.389919,19.176664 351.071094,18 L344.004391,18 C339.583688,18 336,14.4222582 336,10.0001134 L336,7.9998866 C336,3.58167123 339.584976,0 344.004391,0 L404.995609,0 C409.416312,0 413,3.57774184 413,7.9998866 L413,10.0001134 C413,11.4572179 412.610081,12.823336 411.928906,14 L418.995609,14 C423.416312,14 427,17.5777418 427,21.9998866 L427,24.0001134 C427,28.4183288 423.415024,32 418.995609,32 L397.748186,32 C397.912573,32.6390857 398,33.3091862 398,33.9998866 L398,36.0001134 C398,40.4183288 394.415024,44 389.995609,44 L329.004391,44 C324.583688,44 321,40.4222582 321,36.0001134 L321,33.9998866 C321,29.5816712 324.584976,26 329.004391,26 L350.251814,26 Z M163.251814,120 C163.087427,119.360914 163,118.690814 163,118.000113 L163,115.999887 C163,114.542782 163.389919,113.176664 164.071094,112 L157.004391,112 C152.583688,112 149,108.422258 149,104.000113 L149,101.999887 C149,97.5816712 152.584976,94 157.004391,94 L217.995609,94 C222.416312,94 226,97.5777418 226,101.999887 L226,104.000113 C226,105.457218 225.610081,106.823336 224.928906,108 L231.995609,108 C236.416312,108 240,111.577742 240,115.999887 L240,118.000113 C240,122.418329 236.415024,126 231.995609,126 L210.748186,126 C210.912573,126.639086 211,127.309186 211,127.999887 L211,130.000113 C211,134.418329 207.415024,138 202.995609,138 L142.004391,138 C137.583688,138 134,134.422258 134,130.000113 L134,127.999887 C134,123.581671 137.584976,120 142.004391,120 L163.251814,120 Z M29.2518139,54 C29.0874266,53.3609143 29,52.6908138 29,52.0001134 L29,49.9998866 C29,48.5427821 29.3899185,47.176664 30.0710939,46 L23.004391,46 C18.5836879,46 15,42.4222582 15,38.0001134 L15,35.9998866 C15,31.5816712 18.584976,28 23.004391,28 L83.995609,28 C88.4163121,28 92,31.5777418 92,35.9998866 L92,38.0001134 C92,39.4572179 91.6100815,40.823336 90.9289061,42 L97.995609,42 C102.416312,42 106,45.5777418 106,49.9998866 L106,52.0001134 C106,56.4183288 102.415024,60 97.995609,60 L76.7481861,60 C76.9125734,60.6390857 77,61.3091862 77,61.9998866 L77,64.0001134 C77,68.4183288 73.415024,72 68.995609,72 L8.00439096,72 C3.5836879,72 0,68.4222582 0,64.0001134 L0,61.9998866 C0,57.5816712 3.584976,54 8.00439096,54 L29.2518139,54 Z M209,51 C215.5,49 225,52 225,41.5 C225,31 217.008129,58 209,58 C200.991871,58 186.5,37.4248678 186.5,43.5 C186.5,49.5751322 202.5,53 209,51 Z M239.655844,59.0818473 C244.467532,57.3909465 251.5,59.9272977 251.5,51.0500686 C251.5,42.1728395 245.58394,65 239.655844,65 C233.727749,65 223,47.6047464 223,52.7409694 C223,57.8771923 234.844156,60.7727481 239.655844,59.0818473 Z M189.655844,70.1915009 C194.467532,68.817644 201.5,70.8784294 201.5,63.6656807 C201.5,56.4529321 195.58394,75 189.655844,75 C183.727749,75 173,60.8663565 173,65.0395376 C173,69.2127187 184.844156,71.5653578 189.655844,70.1915009 Z" id="Combined-Shape"></path>
                </g>
                <g id="sx" transform="translate(44.000000, 50.000000)">
                    <g id="Rectangle-5">
                        <use fill="#FFFFFF" fill-rule="evenodd" xlink:href="#path-3"></use>
                        <path stroke="#043B34" stroke-width="6" d="M26.6480187,31.6300425 L-2.98223312,302.673985 L-3.34582971,306 L-5.62806127e-16,306 L303,306 L307.256073,306 L305.825436,301.99158 L200.014229,5.52515617 C198.046814,0.0127680637 191.925865,-3.6422577 186.137845,-2.75993751 L37.9579665,19.8284586 C32.2437464,20.6995287 27.2761755,25.8839523 26.6480187,31.6300425 Z"></path>
                    </g>
                    <g id="divisorisx" transform="translate(0.000000, 76.000000)" stroke="#043B34">
                        <path d="M226,14 L21.9984838,14 C18.6891472,14 16,11.3082552 16,8 C16,4.68583364 18.6850994,2 21.9984838,2 L220.001516,2 C223.310853,2 226,4.69174478 226,8 L226,14 Z" id="Rectangle" stroke-width="4"></path>
                        <path d="M268,134 L11.9943384,134 C7.57903168,134 4,130.419579 4,126 C4,121.582138 7.58088378,118 11.9943384,118 L260.005662,118 C264.420968,118 268,121.580421 268,126 L268,134 Z" id="Rectangle" stroke-width="8"></path>
                    </g>
                    <g id="archi2livello" transform="translate(26.000000, 119.000000)" fill="#043B34">
                        <path d="M0,16.9907598 C0,7.60702226 7.60909491,0 17,0 C26.3888407,0 34,7.61693577 34,16.9907598 L34,52 L0,52 L0,16.9907598 Z M54,16.9907598 C54,7.60702226 61.6090949,0 71,0 C80.3888407,0 88,7.61693577 88,16.9907598 L88,52 L54,52 L54,16.9907598 Z M108,16.9907598 C108,7.60702226 115.609095,0 125,0 C134.388841,0 142,7.61693577 142,16.9907598 L142,52 L108,52 L108,16.9907598 Z M162,16.9907598 C162,7.60702226 169.609095,0 179,0 C188.388841,0 196,7.61693577 196,16.9907598 L196,52 L162,52 L162,16.9907598 Z" id="Combined-Shape"></path>
                    </g>
                    <g id="archilivello1" transform="translate(18.000000, 226.000000)" fill="#043B34">
                        <path d="M0,26.0043444 C0,11.6425416 11.6374393,0 26,0 C40.3594035,0 52,11.6354905 52,26.0043444 L52,79 L0,79 L0,26.0043444 Z M136,26.0043444 C136,11.6425416 147.637439,0 162,0 C176.359403,0 188,11.6354905 188,26.0043444 L188,79 L136,79 L136,26.0043444 Z M204,26.0043444 C204,11.6425416 215.637439,0 230,0 C244.359403,0 256,11.6354905 256,26.0043444 L256,79 L204,79 L204,26.0043444 Z M68,26.0043444 C68,11.6425416 79.6374393,0 94,0 C108.359403,0 120,11.6354905 120,26.0043444 L120,79 L68,79 L68,26.0043444 Z" id="Combined-Shape"></path>
                    </g>
                    <g id="finestre-livello3" transform="translate(49.000000, 41.000000)" fill="#043B34">
                        <path d="M0,3.9947834 C0,1.78852545 1.79171562,0 3.9947834,0 L18,0 L18,14.0052166 C18,16.2114745 16.2082844,18 14.0052166,18 L0,18 L0,3.9947834 Z M58,3.9947834 C58,1.78852545 59.7917156,0 61.9947834,0 L76,0 L76,14.0052166 C76,16.2114745 74.2082844,18 72.0052166,18 L58,18 L58,3.9947834 Z M116,3.9947834 C116,1.78852545 117.791716,0 119.994783,0 L134,0 L134,14.0052166 C134,16.2114745 132.208284,18 130.005217,18 L116,18 L116,3.9947834 Z" id="Combined-Shape"></path>
                    </g>
                </g>
                <rect id="Rectangle-10" fill="#043B34" x="0" y="357" width="711" height="13" rx="6.5"></rect>
                <g id="albero" transform="translate(613.000000, 167.000000)">
                    <rect id="Rectangle-11" fill="#043B34" x="44" y="131" width="12" height="64"></rect>
                    <path d="M80.4568159,104.760931 C77.2594781,119.406992 64.3761774,130 49.3758621,130 C31.8037476,130 17.5448276,115.578095 17.5448276,97.7708333 C17.5448276,95.3041889 17.817975,92.8757579 18.3537839,90.5163597 L18.7323901,88.8491934 L17.4910349,87.6736835 C8.55191706,79.2087244 3,64.8494032 3,49.0833333 C3,23.4549994 17.5154932,3 34.8310345,3 C47.0403059,3 58.2431973,13.2517129 63.555716,29.2702 L64.3797558,31.7548729 L66.9531502,31.2749957 C68.9695058,30.8989931 71.0258843,30.7083333 73.1068966,30.7083333 C92.3478317,30.7083333 108,47.0586699 108,67.2916667 C108,83.817536 97.4615668,98.139375 82.5421767,102.522425 L80.8360773,103.023646 L80.4568159,104.760931 Z" id="Combined-Shape" stroke="#043B34" stroke-width="6"></path>
                    <path d="M36,18.9000366 C35.5821697,18.9628055 35.062803,19 34.5,19 C33.937197,19 33.4178303,18.9628055 33,18.9000366 C32.5821697,18.9628055 32.062803,19 31.5,19 C30.1192881,19 29,18.7761424 29,18.5 C29,18.2238576 30.1192881,18 31.5,18 C32.062803,18 32.5821697,18.0371945 33,18.0999634 C33.4178303,18.0371945 33.937197,18 34.5,18 C35.062803,18 35.5821697,18.0371945 36,18.0999634 C36.4178303,18.0371945 36.937197,18 37.5,18 C38.8807119,18 40,18.2238576 40,18.5 C40,18.7761424 38.8807119,19 37.5,19 C36.937197,19 36.4178303,18.9628055 36,18.9000366 Z M40,87.9000366 C39.5821697,87.9628055 39.062803,88 38.5,88 C37.937197,88 37.4178303,87.9628055 37,87.9000366 C36.5821697,87.9628055 36.062803,88 35.5,88 C34.1192881,88 33,87.7761424 33,87.5 C33,87.2238576 34.1192881,87 35.5,87 C36.062803,87 36.5821697,87.0371945 37,87.0999634 C37.4178303,87.0371945 37.937197,87 38.5,87 C39.062803,87 39.5821697,87.0371945 40,87.0999634 C40.4178303,87.0371945 40.937197,87 41.5,87 C42.8807119,87 44,87.2238576 44,87.5 C44,87.7761424 42.8807119,88 41.5,88 C40.937197,88 40.4178303,87.9628055 40,87.9000366 Z M75,66.9000366 C74.5821697,66.9628055 74.062803,67 73.5,67 C72.937197,67 72.4178303,66.9628055 72,66.9000366 C71.5821697,66.9628055 71.062803,67 70.5,67 C69.1192881,67 68,66.7761424 68,66.5 C68,66.2238576 69.1192881,66 70.5,66 C71.062803,66 71.5821697,66.0371945 72,66.0999634 C72.4178303,66.0371945 72.937197,66 73.5,66 C74.062803,66 74.5821697,66.0371945 75,66.0999634 C75.4178303,66.0371945 75.937197,66 76.5,66 C77.8807119,66 79,66.2238576 79,66.5 C79,66.7761424 77.8807119,67 76.5,67 C75.937197,67 75.4178303,66.9628055 75,66.9000366 Z M30,57.9000366 C29.5821697,57.9628055 29.062803,58 28.5,58 C27.937197,58 27.4178303,57.9628055 27,57.9000366 C26.5821697,57.9628055 26.062803,58 25.5,58 C24.1192881,58 23,57.7761424 23,57.5 C23,57.2238576 24.1192881,57 25.5,57 C26.062803,57 26.5821697,57.0371945 27,57.0999634 C27.4178303,57.0371945 27.937197,57 28.5,57 C29.062803,57 29.5821697,57.0371945 30,57.0999634 C30.4178303,57.0371945 30.937197,57 31.5,57 C32.8807119,57 34,57.2238576 34,57.5 C34,57.7761424 32.8807119,58 31.5,58 C30.937197,58 30.4178303,57.9628055 30,57.9000366 Z" id="Combined-Shape" fill="#043B34"></path>
                </g>
                <path d="M683,273.900037 C682.58217,273.962806 682.062803,274 681.5,274 C680.937197,274 680.41783,273.962806 680,273.900037 C679.58217,273.962806 679.062803,274 678.5,274 C677.119288,274 676,273.776142 676,273.5 C676,273.223858 677.119288,273 678.5,273 C679.062803,273 679.58217,273.037194 680,273.099963 C680.41783,273.037194 680.937197,273 681.5,273 C682.062803,273 682.58217,273.037194 683,273.099963 C683.41783,273.037194 683.937197,273 684.5,273 C685.880712,273 687,273.223858 687,273.5 C687,273.776142 685.880712,274 684.5,274 C683.937197,274 683.41783,273.962806 683,273.900037 Z" id="Combined-Shape" fill="#043B34"></path>
                <text id="ITALIAN" font-family="Roboto-Thin, Roboto" font-size="80" font-style="condensed" font-weight="300" fill="#043B34">
                    <tspan x="207" y="444">ITALIAN</tspan>
                </text>
            </g>
        </g>
    </g>
</svg>