<?xml version="1.0" encoding="UTF-8"?>
<svg width="199px" height="160px" viewBox="0 0 199 160" version="1.1" xmlns="http://www.w3.org/2000/svg" xmlns:xlink="http://www.w3.org/1999/xlink">
    <!-- Generator: Sketch 43.1 (39012) - http://www.bohemiancoding.com/sketch -->
    <title>Combined Shape</title>
    <desc>Created with Sketch.</desc>
    <defs></defs>
    <g id="Page-1" stroke="none" stroke-width="1" fill="none" fill-rule="evenodd">
        <path d="M189.196412,32.8 L9.62015652,32.8 L9.62015652,152 L189.196412,152 L189.196412,32.8 Z M0,0 L198.816568,0 L198.816568,160 L0,160 L0,0 Z M14.4302348,22.4 C17.9722786,22.4 20.8436725,19.5346224 20.8436725,16 C20.8436725,12.4653776 17.9722786,9.6 14.4302348,9.6 C10.888191,9.6 8.0167971,12.4653776 8.0167971,16 C8.0167971,19.5346224 10.888191,22.4 14.4302348,22.4 Z M57.7209391,18.4 C57.7209391,20.6046438 59.5094856,22.4 61.7157694,22.4 L186.003261,22.4 C188.203444,22.4 189.998091,20.609139 189.998091,18.4 C189.998091,16.1953562 188.209545,14.4 186.003261,14.4 L61.7157694,14.4 C59.515586,14.4 57.7209391,16.190861 57.7209391,18.4 Z M71.607848,101.40625 L75.9920339,80 L80.9046708,80 L74.3283919,108.4375 L69.5919054,108.4375 L64.1703897,87.6757812 L58.6314406,108.4375 L53.8753818,108.4375 L47.2991029,80 L52.2117398,80 L56.6350702,101.367188 L62.0761581,80 L66.2254769,80 L71.607848,101.40625 Z M106.877058,101.40625 L111.261244,80 L116.173881,80 L109.597602,108.4375 L104.861115,108.4375 L99.4395996,87.6757812 L93.9006505,108.4375 L89.1445916,108.4375 L82.5683128,80 L87.4809497,80 L91.9042801,101.367188 L97.345368,80 L101.494687,80 L106.877058,101.40625 Z M142.146268,101.40625 L146.530454,80 L151.443091,80 L144.866812,108.4375 L140.130325,108.4375 L134.70881,87.6757812 L129.16986,108.4375 L124.413802,108.4375 L117.837523,80 L122.75016,80 L127.17349,101.367188 L132.614578,80 L136.763897,80 L142.146268,101.40625 Z" id="Combined-Shape" fill="#21E387"></path>
    </g>
</svg>